<?xml version="1.0" standalone="no"?>
<!DOCTYPE svg PUBLIC "-//W3C//DTD SVG 20010904//EN"
 "http://www.w3.org/TR/2001/REC-SVG-20010904/DTD/svg10.dtd">
<svg version="1.0" xmlns="http://www.w3.org/2000/svg"
 width="220.000000pt" height="55.000000pt" viewBox="0 0 220.000000 55.000000"
 preserveAspectRatio="xMidYMid meet">
<metadata>
Created by potrace 1.10, written by Peter Selinger 2001-2011
</metadata>
<g transform="translate(0.000000,55.000000) scale(0.100000,-0.100000)"
fill="#000000" stroke="none">
<path d="M465 471 c44 -44 81 -81 83 -81 5 0 -5 151 -11 156 -2 2 -11 2 -20
-2 -12 -4 -15 -13 -11 -29 9 -35 -12 -38 -39 -5 -14 16 -38 32 -53 36 -25 5
-18 -5 51 -75z"/>
<path d="M299 464 l-73 -74 45 0 c33 0 51 6 64 20 23 26 59 26 83 -1 15 -15
29 -19 58 -17 l39 3 -72 71 -71 71 -73 -73z m139 -19 c31 -36 27 -41 -9 -11
-18 16 -43 26 -62 26 -30 0 -30 0 -11 18 16 16 22 17 40 6 11 -8 30 -25 42
-39z"/>
<path d="M300 295 l74 -75 76 73 75 72 -44 3 c-35 3 -48 -1 -60 -17 -9 -11
-23 -21 -31 -22 -23 -4 -57 10 -64 26 -4 10 -20 15 -53 15 l-47 0 74 -75z"/>
<path d="M1040 350 c-45 -5 -45 -5 -52 -50 -3 -25 -4 -76 -1 -113 7 -80 21
-93 91 -83 53 7 77 23 62 41 -7 9 -23 10 -53 4 -49 -9 -60 -2 -55 37 3 26 7
29 48 34 31 3 45 10 45 20 0 11 -11 15 -47 13 -47 -1 -48 0 -48 28 0 28 2 29
44 29 47 0 84 25 52 35 -31 10 -42 11 -86 5z"/>
<path d="M1907 354 c-4 -4 -7 -23 -7 -41 0 -30 -3 -33 -20 -28 -55 17 -115
-66 -91 -127 16 -41 56 -64 88 -49 18 8 29 9 38 1 22 -18 27 5 29 128 1 98 -1
117 -14 120 -9 1 -19 0 -23 -4z m-19 -116 c17 -17 15 -64 -4 -83 -20 -20 -35
-15 -53 17 -13 23 -13 29 2 52 19 28 36 33 55 14z"/>
<path d="M1990 345 c-16 -19 -5 -47 17 -43 11 2 18 12 18 27 0 29 -17 37 -35
16z"/>
<path d="M628 334 c-31 -16 -46 -58 -31 -83 5 -9 36 -25 69 -36 64 -22 75 -41
34 -62 -28 -14 -61 -8 -73 13 -4 8 -14 14 -21 14 -23 0 -26 -28 -6 -52 15 -19
28 -23 71 -22 44 0 56 5 76 28 44 52 25 97 -50 117 -56 15 -71 27 -55 46 9 11
23 13 54 8 47 -7 63 5 38 29 -19 20 -70 20 -106 0z"/>
<path d="M785 337 c-25 -19 -10 -40 26 -35 l29 5 0 -98 c0 -99 8 -121 35 -99
11 9 15 36 15 106 0 83 2 94 18 92 38 -3 52 3 52 22 0 18 -7 20 -78 20 -50 0
-85 -5 -97 -13z"/>
<path d="M1185 340 c-10 -16 -21 -231 -12 -237 4 -2 14 1 22 7 11 9 15 33 15
81 0 38 4 69 8 69 4 0 14 -27 21 -60 25 -110 58 -120 86 -23 25 91 30 93 33
16 3 -77 22 -111 41 -75 10 18 -3 204 -15 224 -9 14 -43 8 -52 -9 -5 -10 -15
-43 -22 -73 -7 -30 -15 -59 -18 -64 -3 -5 -17 26 -31 70 -21 63 -30 80 -48 82
-11 2 -24 -2 -28 -8z"/>
<path d="M122 303 l37 -36 35 29 c19 16 35 32 35 37 1 4 -32 7 -71 7 l-73 0
37 -37z"/>
<path d="M38 289 l-38 -39 77 0 77 0 -39 40 c-21 22 -39 40 -40 39 0 0 -17
-18 -37 -40z"/>
<path d="M210 285 l-34 -35 35 -36 36 -35 37 37 c20 20 35 37 34 38 -2 0 -19
16 -39 34 l-35 32 -34 -35z m62 -30 c-6 -32 -20 -41 -38 -23 -22 22 -11 50 18
46 17 -2 22 -9 20 -23z"/>
<path d="M1445 278 c-9 -32 -12 -224 -3 -241 14 -27 38 -3 38 39 0 30 2 33 32
32 83 -3 110 143 32 172 -16 7 -32 6 -44 0 -13 -7 -21 -7 -25 0 -9 14 -25 13
-30 -2z m95 -47 c24 -46 -3 -101 -41 -81 -32 18 -19 100 16 100 8 0 19 -9 25
-19z"/>
<path d="M1670 283 c-72 -27 -79 -145 -10 -173 43 -18 110 11 110 47 0 18 -20
16 -41 -3 -22 -20 -69 -11 -69 12 0 8 4 13 9 10 15 -9 71 15 82 35 12 23 -2
53 -31 69 -20 11 -27 11 -50 3z m37 -50 c4 -12 -45 -38 -54 -29 -3 2 1 14 7
26 12 22 40 24 47 3z"/>
<path d="M2078 279 c-10 -5 -18 -19 -18 -29 0 -21 15 -27 25 -10 3 6 19 10 35
10 16 0 32 -4 35 -10 4 -6 -8 -10 -29 -10 -43 0 -76 -29 -76 -65 0 -27 32 -65
53 -64 6 0 21 4 32 8 11 5 25 4 32 -1 19 -15 26 10 24 86 -1 52 -6 74 -18 84
-20 14 -71 15 -95 1z m71 -93 c9 -11 8 -18 -4 -30 -21 -20 -44 -21 -51 -1 -7
17 12 45 31 45 7 0 18 -6 24 -14z"/>
<path d="M1987 274 c-11 -12 -8 -162 3 -169 24 -15 35 15 35 92 0 62 -3 78
-15 81 -9 1 -19 0 -23 -4z"/>
<path d="M293 198 l-43 -44 0 -79 0 -80 45 46 46 45 -3 78 -3 77 -42 -43z"/>
</g>
</svg>
